<?xml version="1.0" encoding="UTF-8"?>
<svg xmlns="http://www.w3.org/2000/svg" xmlns:xlink="http://www.w3.org/1999/xlink" width="1001px" height="260px" viewBox="0 0 1001 260" version="1.1">
<g id="surface1">
<path style=" stroke:none;fill-rule:nonzero;fill:rgb(0%,34.901961%,74.509804%);fill-opacity:1;" d="M 83.65625 68.078125 L 117.695312 68.078125 C 118.519531 68.003906 119.355469 68.109375 120.136719 68.386719 C 120.917969 68.664062 121.632812 69.109375 122.226562 69.6875 C 123.203125 71.007812 123.6875 72.625 123.597656 74.261719 C 123.597656 80.128906 119.050781 88.316406 111.648438 88.316406 L 78.921875 88.316406 Z M 83.65625 68.078125 "/>
<path style=" stroke:none;fill-rule:evenodd;fill:rgb(0%,34.901961%,74.509804%);fill-opacity:1;" d="M 66.179688 32.5 L 155.441406 32.5 C 167.1875 32.5 180.921875 41.078125 177.257812 59.5 C 173.027344 77.589844 167.960938 99.609375 165.578125 109.96875 L 128.777344 109.96875 C 108.917969 109.96875 92.230469 124.652344 87.9375 142.742188 L 87.9375 142.902344 L 78.019531 142.902344 C 77.417969 142.890625 76.828125 143.066406 76.332031 143.40625 L 39.863281 169.316406 C 39.359375 169.675781 38.761719 169.871094 38.144531 169.878906 C 37.527344 169.890625 36.921875 169.710938 36.410156 169.371094 C 35.894531 169.027344 35.5 168.539062 35.269531 167.964844 C 35.042969 167.394531 34.992188 166.765625 35.128906 166.164062 L 40.386719 142.902344 C 25.8125 142.902344 16.75 130.867188 20.257812 116.089844 C 20.257812 116.089844 29.019531 77.574219 33.390625 59.3125 C 37.765625 41.046875 51.5625 32.5 66.179688 32.5 Z M 77.910156 98.488281 L 111.648438 98.488281 C 124.6875 98.488281 133.765625 85.714844 133.765625 74.261719 C 133.894531 70.175781 132.523438 66.183594 129.914062 63.035156 C 128.382812 61.332031 126.492188 59.988281 124.378906 59.101562 C 122.265625 58.214844 119.984375 57.808594 117.695312 57.90625 L 80.089844 57.90625 C 78.804688 57.90625 77.554688 58.339844 76.550781 59.140625 C 75.542969 59.941406 74.835938 61.058594 74.546875 62.308594 L 62.566406 114.226562 C 62.394531 114.957031 62.371094 115.707031 62.492188 116.445312 C 62.609375 117.183594 62.875 117.886719 63.269531 118.523438 C 63.664062 119.15625 64.179688 119.707031 64.789062 120.144531 C 65.398438 120.578125 66.085938 120.886719 66.8125 121.058594 C 67.238281 121.152344 67.671875 121.199219 68.105469 121.199219 C 69.394531 121.207031 70.644531 120.773438 71.652344 119.972656 C 72.660156 119.171875 73.363281 118.054688 73.648438 116.800781 Z M 77.910156 98.488281 "/>
<path style=" stroke:none;fill-rule:evenodd;fill:rgb(0%,90.196078%,62.745098%);fill-opacity:1;" d="M 219.570312 117.667969 L 224.875 94.007812 C 224.96875 93.578125 224.964844 93.132812 224.863281 92.703125 C 224.761719 92.277344 224.570312 91.875 224.292969 91.53125 C 224.015625 91.191406 223.667969 90.914062 223.273438 90.722656 C 222.875 90.53125 222.441406 90.429688 222 90.429688 C 221.394531 90.433594 220.800781 90.625 220.3125 90.980469 L 183.683594 117.066406 C 183.1875 117.421875 182.589844 117.613281 181.980469 117.617188 L 128.652344 117.617188 C 114.03125 117.617188 99.351562 129.574219 95.847656 144.335938 L 82.648438 200.609375 C 79.160156 215.371094 91.378906 227.421875 102.777344 227.421875 L 193.695312 227.421875 C 208.3125 227.421875 222.996094 215.449219 226.5 200.609375 L 239.632812 144.335938 C 243.1875 129.574219 234.203125 117.667969 219.570312 117.667969 Z M 202.203125 157.09375 L 182.515625 199.519531 C 182.046875 200.492188 181.320312 201.316406 180.410156 201.902344 C 179.503906 202.484375 178.449219 202.808594 177.371094 202.832031 L 177.117188 202.832031 C 176.074219 202.832031 175.046875 202.550781 174.148438 202.027344 C 173.246094 201.5 172.5 200.742188 171.988281 199.835938 L 159.40625 177.597656 L 132.566406 201.414062 C 131.660156 202.195312 130.539062 202.6875 129.351562 202.832031 C 128.160156 202.976562 126.957031 202.761719 125.886719 202.21875 C 124.816406 201.664062 123.9375 200.796875 123.371094 199.730469 C 122.808594 198.664062 122.585938 197.453125 122.730469 196.253906 L 128.191406 153.671875 C 128.277344 152.890625 128.519531 152.128906 128.898438 151.441406 C 129.28125 150.75 129.800781 150.144531 130.421875 149.660156 C 131.042969 149.171875 131.753906 148.816406 132.515625 148.609375 C 133.277344 148.402344 134.070312 148.347656 134.855469 148.453125 C 135.636719 148.558594 136.390625 148.820312 137.066406 149.222656 C 137.746094 149.625 138.339844 150.15625 138.808594 150.789062 C 139.277344 151.421875 139.617188 152.144531 139.800781 152.910156 C 139.988281 153.675781 140.019531 154.472656 139.890625 155.25 L 136.542969 182.09375 L 157.066406 163.875 C 157.726562 163.292969 158.507812 162.863281 159.355469 162.621094 C 160.203125 162.378906 161.09375 162.328125 161.960938 162.472656 C 162.832031 162.613281 163.660156 162.949219 164.378906 163.453125 C 165.101562 163.960938 165.699219 164.621094 166.128906 165.390625 L 176.582031 184.03125 L 191.421875 152.0625 C 191.894531 151.042969 192.648438 150.179688 193.597656 149.570312 C 194.542969 148.964844 195.648438 148.644531 196.773438 148.640625 C 197.773438 148.636719 198.757812 148.886719 199.636719 149.367188 C 200.515625 149.847656 201.257812 150.542969 201.792969 151.386719 C 202.328125 152.234375 202.640625 153.199219 202.699219 154.199219 C 202.753906 155.195312 202.558594 156.195312 202.125 157.09375 Z M 202.203125 157.09375 "/>
<path style=" stroke:none;fill-rule:evenodd;fill:rgb(29.411765%,31.372549%,34.117647%);fill-opacity:1;" d="M 748.195312 142.335938 C 746.214844 151.695312 741.214844 160.136719 733.960938 166.359375 C 727.1875 171.96875 718.640625 174.976562 709.851562 174.839844 C 700.660156 174.839844 694.039062 171.972656 689.980469 166.238281 C 685.925781 160.503906 685.164062 152.5 687.707031 142.214844 L 693.769531 117.835938 C 695.773438 108.496094 700.753906 100.066406 707.953125 93.8125 C 714.675781 88.082031 723.242188 84.992188 732.070312 85.117188 C 741.203125 85.117188 747.839844 88 751.960938 93.8125 C 756.078125 99.625 756.871094 107.578125 754.359375 117.835938 Z M 737.4375 117.761719 C 739.035156 111.550781 739.035156 106.847656 737.4375 103.664062 C 736.613281 102.050781 735.324219 100.730469 733.738281 99.871094 C 732.148438 99.015625 730.339844 98.660156 728.546875 98.859375 C 726.445312 98.816406 724.359375 99.222656 722.429688 100.050781 C 720.503906 100.878906 718.769531 102.109375 717.351562 103.664062 C 713.886719 107.699219 711.527344 112.5625 710.496094 117.789062 L 704.386719 142.359375 C 702.785156 148.6875 702.742188 153.425781 704.242188 156.582031 C 705.730469 159.726562 708.675781 161.386719 713.089844 161.386719 C 715.183594 161.402344 717.253906 160.984375 719.1875 160.160156 C 721.109375 159.332031 722.84375 158.113281 724.277344 156.582031 C 727.871094 152.546875 730.332031 147.632812 731.417969 142.335938 Z M 479.683594 146.800781 C 479.792969 148.183594 479.617188 149.574219 479.167969 150.886719 C 478.503906 153.9375 476.882812 156.691406 474.542969 158.742188 C 472.101562 160.746094 469.011719 161.769531 465.867188 161.625 C 461.289062 161.625 458.171875 160.449219 456.496094 158.09375 C 454.816406 155.742188 454.625 151.875 455.96875 146.492188 L 439.453125 146.492188 L 439.238281 146.851562 C 436.859375 155.933594 438.0625 162.875 442.859375 167.679688 C 445.484375 170.152344 448.585938 172.066406 451.972656 173.304688 C 455.359375 174.542969 458.960938 175.082031 462.558594 174.886719 C 470.238281 175.078125 477.785156 172.839844 484.128906 168.496094 C 490.183594 164.308594 494.457031 158.003906 496.113281 150.816406 C 497.910156 143.515625 497.285156 137.722656 494.195312 133.449219 C 491.09375 129.171875 485.78125 125.640625 478.257812 122.855469 C 474.769531 121.359375 471.574219 119.261719 468.8125 116.65625 C 467.972656 115.683594 467.40625 114.503906 467.160156 113.242188 C 466.917969 111.976562 467.007812 110.667969 467.421875 109.453125 C 468.144531 106.421875 469.828125 103.707031 472.214844 101.714844 C 474.65625 99.734375 477.730469 98.710938 480.867188 98.832031 C 482.339844 98.679688 483.824219 98.941406 485.152344 99.597656 C 486.480469 100.253906 487.59375 101.269531 488.371094 102.535156 C 489.765625 105.550781 489.964844 108.984375 488.921875 112.140625 L 505.386719 112.140625 L 505.601562 111.78125 C 507.589844 104.191406 506.703125 97.96875 502.796875 92.875 C 498.890625 87.785156 492.757812 85.382812 484.511719 85.382812 C 476.722656 85.261719 469.097656 87.617188 462.726562 92.109375 C 456.652344 96.179688 452.304688 102.371094 450.527344 109.476562 C 448.738281 116.730469 449.601562 122.335938 453.117188 126.289062 C 456.628906 130.246094 462.511719 133.824219 470.753906 137.027344 C 473.8125 138.253906 476.496094 140.257812 478.542969 142.839844 C 479.191406 144.070312 479.578125 145.417969 479.683594 146.800781 Z M 310.757812 142.339844 L 302.992188 173.566406 L 286 173.566406 L 307.570312 86.5625 L 337.742188 86.5625 C 346.421875 86.5625 352.601562 89.132812 356.339844 94.25 C 360.082031 99.363281 360.894531 106.113281 358.738281 114.449219 C 356.898438 122.390625 352.480469 129.496094 346.179688 134.652344 C 339.90625 139.734375 332.054688 142.457031 323.988281 142.339844 Z M 314.136719 128.765625 L 327.320312 128.765625 C 329.0625 128.789062 330.792969 128.445312 332.394531 127.753906 C 333.996094 127.0625 335.433594 126.039062 336.617188 124.753906 C 339.285156 121.902344 341.148438 118.386719 342.011719 114.570312 C 343.066406 111.195312 342.972656 107.558594 341.746094 104.242188 C 341.113281 102.902344 340.082031 101.792969 338.796875 101.0625 C 337.507812 100.332031 336.027344 100.015625 334.554688 100.15625 L 321.375 100.15625 Z M 439.527344 86.582031 L 424.789062 145.796875 C 422.996094 154.375 418.222656 162.039062 411.320312 167.414062 C 404.640625 172.453125 396.476562 175.105469 388.121094 174.957031 C 379.332031 174.957031 372.851562 172.4375 368.683594 167.390625 C 364.511719 162.347656 363.578125 155.1875 365.878906 145.917969 L 380.617188 86.703125 L 397.5625 86.703125 L 382.824219 145.917969 C 381.496094 151.234375 381.617188 155.140625 383.183594 157.640625 C 384.105469 158.953125 385.363281 160 386.828125 160.660156 C 388.289062 161.324219 389.902344 161.582031 391.5 161.410156 C 395.242188 161.53125 398.898438 160.253906 401.757812 157.832031 C 404.976562 154.546875 407.125 150.355469 407.914062 145.820312 L 422.65625 86.609375 Z M 566.816406 173.589844 L 549.894531 173.589844 L 558.859375 137.558594 L 531.894531 137.558594 L 522.933594 173.589844 L 505.941406 173.589844 L 527.507812 86.582031 L 544.476562 86.582031 L 535.179688 123.984375 L 562.140625 123.984375 L 571.441406 86.582031 L 588.382812 86.582031 Z M 651.28125 142.097656 L 650.917969 142.097656 L 651.96875 86.582031 L 639.796875 86.582031 L 613.433594 142.097656 L 613.074219 142.097656 L 617.53125 86.582031 L 601.066406 86.582031 L 596.273438 173.589844 L 612.019531 173.589844 L 637.449219 120.285156 L 637.808594 120.285156 L 636.777344 173.589844 L 652.574219 173.589844 L 690.917969 86.582031 L 674.453125 86.582031 Z M 808.46875 166.359375 C 815.730469 160.148438 820.730469 151.699219 822.679688 142.335938 L 828.769531 117.957031 C 831.285156 107.699219 830.492188 99.746094 826.371094 93.933594 C 822.25 88.121094 815.613281 85.238281 806.480469 85.238281 C 797.660156 85.113281 789.085938 88.203125 782.371094 93.933594 C 775.15625 100.179688 770.171875 108.613281 768.183594 117.957031 L 762.117188 142.335938 C 759.601562 152.667969 760.34375 160.617188 764.394531 166.359375 C 768.441406 172.101562 775.085938 174.957031 784.265625 174.957031 C 793.097656 175.082031 801.683594 172.03125 808.46875 166.359375 Z M 811.921875 103.664062 C 813.519531 106.847656 813.519531 111.550781 811.921875 117.765625 L 805.714844 142.335938 C 804.695312 147.617188 802.296875 152.53125 798.765625 156.582031 C 797.328125 158.113281 795.59375 159.332031 793.667969 160.160156 C 791.746094 160.984375 789.664062 161.402344 787.574219 161.386719 C 783.140625 161.386719 780.1875 159.730469 778.726562 156.582031 C 777.210938 153.425781 777.25 148.6875 778.847656 142.363281 L 784.960938 117.789062 C 786.007812 112.566406 788.371094 107.703125 791.835938 103.664062 C 793.253906 102.113281 794.988281 100.882812 796.917969 100.050781 C 798.84375 99.222656 800.929688 98.816406 803.03125 98.859375 C 804.824219 98.664062 806.628906 99.019531 808.214844 99.878906 C 809.808594 100.734375 811.097656 102.054688 811.921875 103.664062 Z M 875.082031 150.886719 C 875.53125 149.574219 875.707031 148.183594 875.59375 146.800781 C 875.492188 145.417969 875.101562 144.070312 874.457031 142.839844 C 872.402344 140.25 869.714844 138.246094 866.644531 137.027344 C 858.421875 133.882812 852.527344 130.300781 849.03125 126.289062 C 845.527344 122.277344 844.640625 116.679688 846.4375 109.476562 C 848.21875 102.371094 852.566406 96.179688 858.636719 92.109375 C 865 87.621094 872.617188 85.265625 880.398438 85.382812 C 888.667969 85.382812 894.785156 87.785156 898.691406 92.875 C 902.597656 97.96875 903.480469 104.191406 901.492188 111.78125 L 901.296875 112.140625 L 884.8125 112.140625 C 885.832031 108.980469 885.632812 105.546875 884.234375 102.53125 C 883.46875 101.269531 882.355469 100.25 881.03125 99.597656 C 879.710938 98.941406 878.226562 98.675781 876.757812 98.832031 C 873.59375 98.695312 870.492188 99.71875 868.035156 101.714844 C 865.644531 103.707031 863.960938 106.421875 863.238281 109.453125 C 862.804688 110.667969 862.707031 111.976562 862.953125 113.246094 C 863.195312 114.511719 863.777344 115.691406 864.628906 116.65625 C 867.390625 119.261719 870.589844 121.359375 874.074219 122.855469 C 881.601562 125.640625 886.910156 129.171875 890.011719 133.449219 C 893.082031 137.722656 893.722656 143.511719 891.902344 150.816406 C 890.253906 158.003906 885.976562 164.308594 879.917969 168.496094 C 873.582031 172.847656 866.035156 175.085938 858.351562 174.886719 C 854.757812 175.082031 851.15625 174.542969 847.777344 173.304688 C 844.394531 172.066406 841.296875 170.152344 838.675781 167.679688 C 833.878906 162.875 832.675781 155.933594 835.054688 146.851562 L 835.269531 146.492188 L 851.785156 146.492188 C 850.441406 151.875 850.609375 155.742188 852.285156 158.09375 C 853.988281 160.496094 857.082031 161.625 861.683594 161.625 C 864.832031 161.769531 867.917969 160.742188 870.355469 158.742188 C 872.734375 156.703125 874.394531 153.949219 875.082031 150.886719 Z M 945.800781 173.589844 L 962.722656 173.589844 L 984.296875 86.582031 L 967.367188 86.582031 L 958.046875 123.984375 L 931.113281 123.984375 L 940.40625 86.582031 L 923.414062 86.582031 L 901.847656 173.589844 L 918.839844 173.589844 L 927.804688 137.558594 L 954.765625 137.558594 Z M 945.800781 173.589844 "/>
</g>
</svg>
